<?xml version="1.0" encoding="iso-8859-1"?>
<!-- Generator: Adobe Illustrator 19.0.0, SVG Export Plug-In . SVG Version: 6.00 Build 0)  -->
<svg version="1.1" id="Layer_1" xmlns="http://www.w3.org/2000/svg" xmlns:xlink="http://www.w3.org/1999/xlink" x="0px" y="0px"
	 viewBox="0 0 512 512" style="enable-background:new 0 0 512 512;" xml:space="preserve">
<polygon style="fill:#ABB9C6;" points="346.399,478.938 165.604,478.938 178.512,448.736 183.427,437.253 194.152,412.162 
	317.851,412.162 328.577,437.253 333.492,448.736 "/>
<polygon style="fill:#93A0AA;" points="328.577,437.253 183.427,437.253 194.152,412.162 317.851,412.162 "/>
<path style="fill:#B6C7D3;" d="M393.461,490.424H118.535l0,0c9.791-14.369,26.054-22.967,43.442-22.967H350.02
	C367.408,467.458,383.671,476.055,393.461,490.424L393.461,490.424z"/>
<path style="fill:#ABB9C6;" d="M511.999,55.097v326.99c0,18.511-14.997,33.52-33.509,33.52H33.509
	C14.997,415.607,0,400.598,0,382.087V55.097c0-18.511,14.997-33.52,33.509-33.52H478.49
	C497.002,21.577,511.999,36.586,511.999,55.097z"/>
<path style="fill:#C5D6E2;" d="M511.999,55.097v326.99c0,18.511-14.997,33.52-33.509,33.52H180.898l24.552-59.874l137.02-334.155
	H478.49C497.002,21.577,511.999,36.586,511.999,55.097z"/>
<path style="fill:#93A0AA;" d="M256.002,393.214c-3.448,0-6.634-2.135-7.958-5.317c-1.465-3.521-0.359-7.694,2.622-10.058
	c6.24-4.949,15.53,0.968,13.723,8.703C263.489,390.388,259.967,393.214,256.002,393.214z"/>
<path style="fill:#B8E9F2;" d="M512,55.097v300.635H0V55.097c0-18.511,14.997-33.52,33.509-33.52H478.49
	C497.002,21.576,512,36.586,512,55.097"/>
<path style="fill:#D4F7FC;" d="M512,55.097v300.635H205.45l137.02-334.155H478.49C497.002,21.576,512,36.586,512,55.097"/>
<path style="fill:#E8D358;" d="M343.842,167.323c0,29.386-14.446,55.373-36.598,71.323l-42.436,17.854l-60.054-17.854
	c-22.209-15.985-36.666-42.075-36.598-71.542c0.115-47.346,38.4-86.493,85.724-87.607c20.659-0.482,39.744,6.167,54.971,17.661
	c0.678,0.505,1.332,1.022,1.998,1.55C330.957,114.809,343.842,139.556,343.842,167.323"/>
<path style="fill:#F2DEB1;" d="M284.179,151.672c-2.243-2.242-5.877-2.242-8.12,0l-20.055,20.055l-20.055-20.055
	c-2.243-2.242-5.877-2.242-8.12,0c-2.242,2.243-2.242,5.878,0,8.121l22.433,22.433v56.424c0,3.171,2.571,5.742,5.742,5.742
	c3.171,0,5.742-2.571,5.742-5.742v-56.424l22.433-22.433C286.42,157.549,286.42,153.914,284.179,151.672"/>
<g>
	<path style="fill:#9BB9D3;" d="M307.244,238.646v34.071c0,13.872-11.242,25.114-25.114,25.114h-52.261
		c-0.218,0-0.448,0-0.666-0.011c-0.861-0.023-1.711-0.08-2.549-0.195c-12.356-1.573-21.899-12.126-21.899-24.907v-34.071
		L307.244,238.646"/>
	<path style="fill:#9BB9D3;" d="M270.647,328.647h-29.294c-4.756,0-8.613-3.856-8.613-8.613s3.856-8.613,8.613-8.613h29.294
		c4.756,0,8.613,3.856,8.613,8.613S275.403,328.647,270.647,328.647"/>
</g>
<g>
	<path style="fill:#84A4BC;" d="M245.372,320.034c0-4.756,3.856-8.613,8.613-8.613h-12.632c-4.756,0-8.613,3.856-8.613,8.613
		c0,4.758,3.856,8.613,8.613,8.613h12.632C249.228,328.647,245.372,324.791,245.372,320.034"/>
	<path style="fill:#84A4BC;" d="M249.237,297.625c-12.356-1.573-21.899-12.126-21.899-24.908v-34.071h-22.583v34.071
		c0,12.781,9.543,23.334,21.899,24.908c0.838,0.115,1.688,0.172,2.549,0.195c0.218,0.012,0.448,0.012,0.666,0.012h22.584
		c-0.218,0-0.448,0-0.666-0.012C250.926,297.797,250.076,297.74,249.237,297.625"/>
</g>
<path style="fill:#9BB9D3;" d="M282.133,313.335h-52.261c-4.756,0-8.613-3.856-8.613-8.613c0-4.756,3.856-8.613,8.613-8.613h52.261
	c4.756,0,8.613,3.856,8.613,8.613C290.746,309.479,286.89,313.335,282.133,313.335"/>
<path style="fill:#84A4BC;" d="M238.868,304.724c0-4.756,3.856-8.613,8.613-8.613h-17.607c-4.756,0-8.613,3.856-8.613,8.613
	c0,4.756,3.856,8.613,8.613,8.613h17.607C242.725,313.335,238.868,309.479,238.868,304.724"/>
<path style="fill:#F2DEB1;" d="M315.594,122.472c5.942,5.942,7.521,13.997,3.525,17.992c-3.994,3.995-12.05,2.416-17.992-3.525
	c-5.942-5.942-7.52-13.997-3.525-17.992C301.597,114.951,309.652,116.53,315.594,122.472"/>
<path style="fill:#D4F7FC;" d="M478.49,21.576H342.469l-31.626,77.128c0.002,0.002,0.005,0.003,0.007,0.006
	c20.107,16.1,32.992,40.846,32.992,68.613c0,29.386-14.446,55.373-36.598,71.323v34.071c0,12.313-8.857,22.553-20.547,24.7
	c2.432,1.523,4.049,4.225,4.049,7.306c0,4.756-3.856,8.613-8.613,8.613h-6.074c1.951,1.579,3.199,3.993,3.199,6.699
	c0,4.756-3.856,8.613-8.613,8.613h-29.294c-4.756,0-8.613-3.856-8.613-8.613l0,0c0-0.001,0-0.001,0-0.001
	c0-2.705,1.248-5.119,3.199-6.698h-6.067c-2.347,0-4.476-0.939-6.029-2.462l-18.394,44.858h306.549V55.096
	C512,36.586,497.002,21.576,478.49,21.576"/>
<path style="fill:#EDD766;" d="M310.843,98.705l-7.395,18.035c0.002,0,0.005,0,0.008,0c3.864,0,8.415,2.01,12.138,5.733
	c5.942,5.942,7.521,13.997,3.525,17.992c-1.492,1.492-3.551,2.207-5.854,2.207c-3.863,0-8.415-2.01-12.138-5.733
	c-1.609-1.609-2.897-3.373-3.842-5.169l-35.539,86.671v20.207l45.498-0.001c22.151-15.949,36.598-41.937,36.598-71.323
	c0-27.767-12.884-52.514-32.992-68.613C310.848,98.708,310.845,98.706,310.843,98.705L310.843,98.705"/>
<polyline style="fill:#F2E2BE;" points="261.746,218.44 253.46,238.646 261.746,238.646 261.746,218.44 "/>
<g>
	<path style="fill:#ADC5DA;" d="M307.244,238.646h-45.498h-8.285l-20.477,49.939c2.71,3.323,6.254,5.937,10.314,7.526h4.183l0,0l0,0
		h34.653c1.675,0,3.239,0.479,4.562,1.307c11.691-2.147,20.547-12.387,20.547-24.7V238.646"/>
	<path style="fill:#ADC5DA;" d="M276.06,313.335h-27.489c-1.951,1.579-3.199,3.993-3.199,6.698c0,4.758,3.856,8.613,8.613,8.613
		h-12.632c-4.756,0-8.613-3.856-8.613-8.613c0,0.001,0,0.001,0,0.001c0,4.756,3.856,8.613,8.613,8.613h29.294
		c4.756,0,8.613-3.856,8.613-8.613C279.259,317.329,278.012,314.914,276.06,313.335"/>
</g>
<g>
	<path style="fill:#9AB4C7;" d="M248.571,313.335h-12.632c-1.951,1.579-3.199,3.993-3.199,6.698l0,0
		c0,4.758,3.856,8.613,8.613,8.613h12.632c-4.756,0-8.613-3.856-8.613-8.613C245.372,317.329,246.62,314.914,248.571,313.335"/>
	<path style="fill:#9AB4C7;" d="M232.983,288.585l-3.086,7.526h13.4C239.237,294.522,235.693,291.907,232.983,288.585"/>
</g>
<path style="fill:#ADC5DA;" d="M282.133,296.11H247.48c-4.756,0-8.613,3.856-8.613,8.613c0,4.756,3.856,8.613,8.613,8.613h-17.607
	c-2.347,0-4.476-0.939-6.029-2.462l0,0l0,0c1.554,1.523,3.682,2.462,6.029,2.462h6.067h12.632h27.489h6.074
	c4.756,0,8.613-3.856,8.613-8.613c0-3.081-1.618-5.784-4.049-7.306C285.373,296.589,283.81,296.11,282.133,296.11"/>
<path style="fill:#9AB4C7;" d="M247.481,296.11h-4.183h-13.4l-6.053,14.763c1.554,1.523,3.682,2.462,6.029,2.462h17.607
	c-4.756,0-8.613-3.856-8.613-8.613C238.868,299.967,242.725,296.11,247.481,296.11L247.481,296.11"/>
<path style="fill:#F2E2BE;" d="M303.456,116.74c-0.002,0-0.005,0-0.008,0l-6.163,15.031c0.945,1.796,2.234,3.56,3.842,5.169
	c3.723,3.723,8.275,5.733,12.138,5.733c2.304,0,4.363-0.714,5.854-2.207c3.994-3.994,2.416-12.05-3.525-17.992
	C311.871,118.749,307.319,116.739,303.456,116.74"/>
<g>
</g>
<g>
</g>
<g>
</g>
<g>
</g>
<g>
</g>
<g>
</g>
<g>
</g>
<g>
</g>
<g>
</g>
<g>
</g>
<g>
</g>
<g>
</g>
<g>
</g>
<g>
</g>
<g>
</g>
</svg>
