<?xml version="1.0" encoding="iso-8859-1"?>
<!-- Generator: Adobe Illustrator 19.0.0, SVG Export Plug-In . SVG Version: 6.00 Build 0)  -->
<svg version="1.1" id="Layer_1" xmlns="http://www.w3.org/2000/svg" xmlns:xlink="http://www.w3.org/1999/xlink" x="0px" y="0px"
	 viewBox="0 0 512 512" style="enable-background:new 0 0 512 512;" xml:space="preserve">
<polygon style="fill:#ABB9C6;" points="346.4,478.938 165.605,478.938 178.512,448.737 183.427,437.253 194.153,412.162 
	317.852,412.162 328.578,437.253 333.492,448.737 "/>
<polygon style="fill:#93A0AA;" points="328.578,437.253 183.427,437.253 194.153,412.162 317.852,412.162 "/>
<path style="fill:#B6C7D3;" d="M393.462,490.425H118.535l0,0c9.791-14.369,26.054-22.967,43.442-22.967h188.043
	C367.408,467.458,383.67,476.056,393.462,490.425L393.462,490.425z"/>
<path style="fill:#ABB9C6;" d="M512,55.095v326.991c0,18.511-14.997,33.52-33.509,33.52H33.509C14.997,415.606,0,400.597,0,382.086
	V55.095c0-18.511,14.997-33.52,33.509-33.52h444.983C497.003,21.575,512,36.584,512,55.095z"/>
<path style="fill:#C5D6E2;" d="M512,55.095v326.991c0,18.511-14.997,33.52-33.509,33.52H180.898l24.552-59.875L342.47,21.575
	h136.021C497.003,21.575,512,36.584,512,55.095z"/>
<path style="fill:#93A0AA;" d="M256.002,393.214c-3.448,0-6.634-2.135-7.958-5.317c-1.465-3.521-0.359-7.694,2.622-10.058
	c6.24-4.949,15.53,0.968,13.723,8.703C263.488,390.388,259.968,393.214,256.002,393.214z"/>
<path style="fill:#B8E9F2;" d="M512,55.095v300.636H0V55.095c0-18.511,14.996-33.52,33.509-33.52h444.983
	C497.003,21.575,512,36.585,512,55.095"/>
<path style="fill:#D4F7FC;" d="M512,55.095v300.636H205.449L342.47,21.575h136.021C497.003,21.575,512,36.585,512,55.095"/>
<g>
	<path style="fill:#6C767F;" d="M248.02,292.345c0,13.593-10.922,24.633-24.471,24.825c-0.119,0.01-0.247,0.01-0.366,0.01
		c-13.711,0-24.835-11.125-24.835-24.835c0-13.722,11.124-24.835,24.835-24.835c6.921,0,13.184,2.832,17.691,7.402
		C245.295,279.397,248.02,285.555,248.02,292.345"/>
	<path style="fill:#6C767F;" d="M360.312,292.345c0,13.711-11.115,24.835-24.835,24.835c-13.711,0-24.825-11.125-24.825-24.835
		c0-13.722,11.115-24.835,24.825-24.835C349.197,267.51,360.312,278.624,360.312,292.345"/>
</g>
<path style="fill:#7F8A93;" d="M360.312,292.345c0,13.711-11.115,24.835-24.835,24.835c-13.711,0-24.825-11.125-24.825-24.835
	c0-13.722,11.115-24.835,24.825-24.835C349.197,267.51,360.312,278.624,360.312,292.345"/>
<g>
	<path style="fill:#535C63;" d="M343.654,292.345c0,4.513-3.659,8.175-8.175,8.175c-4.513,0-8.17-3.662-8.17-8.175
		c0-4.515,3.657-8.174,8.17-8.174C339.997,284.171,343.654,287.83,343.654,292.345"/>
	<path style="fill:#535C63;" d="M231.357,292.345c0,4.513-3.657,8.175-8.174,8.175c-4.513,0-8.17-3.662-8.17-8.175
		c0-4.515,3.657-8.174,8.17-8.174C227.699,284.171,231.357,287.83,231.357,292.345"/>
</g>
<path style="fill:#609DC6;" d="M184.488,131.016l-10.576-50.003c-0.79-3.716-4.072-6.374-7.871-6.374h-36.422
	c-4.404,0-8.246,3.395-8.378,7.798c-0.137,4.557,3.515,8.294,8.043,8.294h30.242l8.56,40.284l21.188,101.701
	c1.174,5.638,6.144,9.678,11.904,9.678h156.319c5.759,0,10.729-4.041,11.903-9.678l21.188-101.701H184.488"/>
<path style="fill:#D4F7FC;" d="M310.651,292.345L310.651,292.345c0-13.722,11.115-24.835,24.825-24.835
	c13.722,0,24.835,11.114,24.835,24.835l0,0l0,0c0,13.711-11.115,24.835-24.835,24.835
	C321.766,317.181,310.651,306.056,310.651,292.345L310.651,292.345 M478.491,21.575H342.47l-44.876,109.441h92.992l-21.188,101.701
	c-1.174,5.638-6.144,9.678-11.903,9.678H251.922l-12.704,30.982c0.575,0.487,1.128,0.999,1.657,1.534
	c4.42,4.485,7.145,10.643,7.145,17.433c0,13.593-10.922,24.633-24.471,24.825c-0.119,0.01-0.247,0.01-0.366,0.01
	c-0.638,0-1.271-0.024-1.897-0.071l-15.838,38.622H512V55.094C512,36.585,497.003,21.575,478.491,21.575"/>
<path style="fill:#878F96;" d="M239.218,273.378l-7.865,19.181c-0.053,2.075-0.88,3.96-2.203,5.373l-7.864,19.178l0,0
	c0.626,0.047,1.259,0.071,1.897,0.071c0.119,0,0.247,0,0.366-0.01c13.549-0.193,24.471-11.232,24.471-24.825
	c0-6.79-2.725-12.949-7.145-17.433C240.347,274.376,239.793,273.864,239.218,273.378L239.218,273.378"/>
<path style="fill:#969FA6;" d="M335.479,300.52c-4.513,0-8.17-3.662-8.17-8.175c0-4.515,3.657-8.174,8.17-8.174
	c4.518,0,8.175,3.659,8.175,8.174C343.654,296.858,339.997,300.52,335.479,300.52 M335.476,267.51
	c-13.711,0-24.825,11.114-24.825,24.835l0,0c0,13.711,11.115,24.835,24.825,24.835c13.722,0,24.835-11.125,24.835-24.835l0,0
	C360.312,278.624,349.197,267.51,335.476,267.51"/>
<g>
	<path style="fill:#737A80;" d="M335.479,284.171c-4.513,0-8.17,3.659-8.17,8.174c0,4.513,3.657,8.175,8.17,8.175
		c4.518,0,8.175-3.662,8.175-8.175C343.654,287.83,339.997,284.171,335.479,284.171"/>
	<path style="fill:#737A80;" d="M231.353,292.559l-2.203,5.373C230.474,296.518,231.3,294.634,231.353,292.559"/>
</g>
<path style="fill:#7EAECF;" d="M390.586,131.016h-92.992l-45.671,111.38h105.573c5.759,0,10.729-4.041,11.903-9.678L390.586,131.016
	"/>
<g>
</g>
<g>
</g>
<g>
</g>
<g>
</g>
<g>
</g>
<g>
</g>
<g>
</g>
<g>
</g>
<g>
</g>
<g>
</g>
<g>
</g>
<g>
</g>
<g>
</g>
<g>
</g>
<g>
</g>
</svg>
