<?xml version="1.0" encoding="iso-8859-1"?>
<!-- Generator: Adobe Illustrator 19.0.0, SVG Export Plug-In . SVG Version: 6.00 Build 0)  -->
<svg version="1.1" id="Layer_1" xmlns="http://www.w3.org/2000/svg" xmlns:xlink="http://www.w3.org/1999/xlink" x="0px" y="0px"
	 viewBox="0 0 512 512" style="enable-background:new 0 0 512 512;" xml:space="preserve">
<polygon style="fill:#ABB9C6;" points="346.4,478.938 165.605,478.938 178.512,448.737 183.427,437.253 194.153,412.162 
	317.852,412.162 328.578,437.253 333.492,448.737 "/>
<polygon style="fill:#93A0AA;" points="328.578,437.253 183.427,437.253 194.153,412.162 317.852,412.162 "/>
<path style="fill:#B6C7D3;" d="M393.462,490.425H118.535l0,0c9.791-14.369,26.054-22.967,43.442-22.967h188.043
	C367.408,467.458,383.67,476.056,393.462,490.425L393.462,490.425z"/>
<path style="fill:#ABB9C6;" d="M512,55.095v326.991c0,18.511-14.997,33.52-33.509,33.52H33.509C14.997,415.606,0,400.597,0,382.086
	V55.095c0-18.511,14.997-33.52,33.509-33.52h444.983C497.003,21.575,512,36.584,512,55.095z"/>
<path style="fill:#C5D6E2;" d="M512,55.095v326.991c0,18.511-14.997,33.52-33.509,33.52H180.898l24.552-59.875L342.47,21.575
	h136.021C497.003,21.575,512,36.584,512,55.095z"/>
<path style="fill:#93A0AA;" d="M256.002,393.214c-3.448,0-6.634-2.135-7.958-5.317c-1.465-3.521-0.359-7.694,2.622-10.058
	c6.24-4.949,15.53,0.968,13.723,8.703C263.488,390.388,259.968,393.214,256.002,393.214z"/>
<path style="fill:#B8E9F2;" d="M511.999,55.095v300.636H0V55.095c0-18.511,14.997-33.52,33.509-33.52h444.983
	C497.003,21.575,511.999,36.585,511.999,55.095"/>
<path style="fill:#D4F7FC;" d="M511.999,55.095v300.636H205.45L342.47,21.575h136.021C497.003,21.575,511.999,36.585,511.999,55.095
	"/>
<g>
	<path style="fill:#609DC6;" d="M362.891,112.056c-22.168,0-40.201,18.034-40.201,40.201v95.76c0,22.166,18.034,40.2,40.201,40.2
		c22.168,0,40.201-18.034,40.201-40.2v-95.76C403.092,130.09,385.059,112.056,362.891,112.056 M385.867,248.017
		c0,12.669-10.306,22.975-22.976,22.975c-12.669,0-22.976-10.306-22.976-22.975v-95.76c0-12.669,10.308-22.975,22.976-22.975
		s22.976,10.306,22.976,22.975V248.017"/>
	<polyline style="fill:#609DC6;" points="218.223,191.524 218.223,208.749 218.223,288.217 292.609,288.217 292.609,270.993 
		235.448,270.993 235.448,208.749 274.465,208.749 274.465,191.524 235.448,191.524 235.448,129.282 292.609,129.282 
		292.609,112.056 218.223,112.056 218.223,191.524 	"/>
	<path style="fill:#609DC6;" d="M146.108,112.056c-20.508,0-37.193,16.685-37.193,37.194v22.307
		c0,20.508,16.684,37.193,37.193,37.193c11.01,0,19.969,8.958,19.969,19.969v22.307c0,11.01-8.957,19.967-19.969,19.967
		c-11.01,0-19.967-8.958-19.967-19.967v-8.613h-17.225v8.613c0,20.508,16.684,37.193,37.193,37.193s37.194-16.684,37.194-37.193
		v-22.307c0-20.508-16.684-37.194-37.194-37.194c-11.01,0-19.967-8.958-19.967-19.967V149.25c0-11.01,8.957-19.969,19.967-19.969
		s19.969,8.958,19.969,19.969v8.613h17.225v-8.613C183.301,128.741,166.616,112.056,146.108,112.056z"/>
</g>
<path style="fill:#D4F7FC;" d="M362.891,129.282c-12.669,0-22.976,10.306-22.976,22.975v95.76c0,12.669,10.308,22.975,22.976,22.975
	s22.976-10.306,22.976-22.975v-95.76C385.867,139.588,375.56,129.282,362.891,129.282 M362.891,288.217
	c-22.168,0-40.201-18.034-40.201-40.2v-95.76c0-22.166,18.034-40.201,40.201-40.201c22.168,0,40.201,18.034,40.201,40.201v95.76
	C403.092,270.183,385.059,288.217,362.891,288.217 M478.491,21.575H342.47l-69.687,169.949h1.682v17.225h-8.746l-25.523,62.242
	h52.412v17.225h-59.475l-27.684,67.514h306.55V55.095C511.999,36.585,497.003,21.575,478.491,21.575"/>
<g>
	<path style="fill:#7EAECF;" d="M362.891,270.993c-12.669,0-22.976-10.306-22.976-22.975v-95.76
		c0-12.669,10.308-22.975,22.976-22.975s22.976,10.306,22.976,22.975v95.76C385.867,260.685,375.56,270.993,362.891,270.993
		 M362.891,112.056c-22.168,0-40.201,18.034-40.201,40.201v95.76c0,22.166,18.034,40.2,40.201,40.2
		c22.168,0,40.201-18.034,40.201-40.2v-95.76C403.092,130.09,385.059,112.056,362.891,112.056"/>
	<path style="fill:#7EAECF;" d="M292.609,270.993h-52.412l-7.063,17.225h59.475V270.993 M274.465,191.524h-1.682l-7.063,17.225
		h8.746V191.524"/>
</g>
<g>
</g>
<g>
</g>
<g>
</g>
<g>
</g>
<g>
</g>
<g>
</g>
<g>
</g>
<g>
</g>
<g>
</g>
<g>
</g>
<g>
</g>
<g>
</g>
<g>
</g>
<g>
</g>
<g>
</g>
</svg>
